# xmcd CD database file
#
# Track frame offsets:
#	150
#	10083
#	22448
#	35308
#	47639
#	61113
#	76161
#	91775
#
# Disc length: 1430 seconds
#
# Revision: 3
# Processed by: cddbd v1.5.2PL0 Copyright (c) Steve Scherf et al.
# Submitted via: CDex 2.09
#
DISCID=53059408
DTITLE=Various Artist - Christmas Carols
DYEAR=2007
DGENRE=Carols
TTITLE0=Aretha Franklin - Winter Wonderland
TTITLE1=Chuck Berry - Run Rudolph Run
TTITLE2=The Platters - Joy to the World
TTITLE3=Judy Garland - Have Yourself A Merry Little Christmas
TTITLE4=Perry Como - Jingle Bells
TTITLE5=The Drifters - O Holy Night
TTITLE6=Smokey Robinson and The Miracles - We Three Kings
TTITLE7=Paulini - Silent Night (A Capella)
EXTD=YEAR: 2007
EXTT0=
EXTT1=
EXTT2=
EXTT3=
EXTT4=
EXTT5=
EXTT6=
EXTT7=
PLAYORDER=
